<svg id="edicao" xmlns="http://www.w3.org/2000/svg" xmlns:xlink="http://www.w3.org/1999/xlink" viewBox="0 0 402.33 402.16"><defs><style>.cls-1{fill:none;}.cls-2{clip-path:url(#clip-path);}.cls-3{fill:url(#Gradiente_sem_nome_2);}.cls-4{clip-path:url(#clip-path-2);}.cls-5{fill:url(#Gradiente_sem_nome_3);}.cls-6{clip-path:url(#clip-path-3);}.cls-7{fill:url(#Gradiente_sem_nome_4);}</style><clipPath id="clip-path" transform="translate(0 0)"><path class="cls-1" d="M275.9,88.29V272.23a3.49,3.49,0,0,1-3.49,3.49H88.47a9.81,9.81,0,0,0,0,19.62l207.61.57h0L295.51,88.3a9.81,9.81,0,0,0-9.8-9.78h0a9.8,9.8,0,0,0-9.81,9.79h0"/></clipPath><linearGradient id="Gradiente_sem_nome_2" x1="426.36" y1="-286.83" x2="426.93" y2="-286.83" gradientTransform="translate(81519.31 121140.46) rotate(-90) scale(283.38)" gradientUnits="userSpaceOnUse"><stop offset="0" stop-color="#fa2f8a"/><stop offset="1" stop-color="#fed61b"/></linearGradient><clipPath id="clip-path-2" transform="translate(0 0)"><path class="cls-1" d="M120.31,120.3a93,93,0,0,0-55,26.92,94,94,0,0,0-22.75,36.66.29.29,0,0,1,0,.13,92.53,92.53,0,0,0-4.74,27.89.81.81,0,0,0,0,.22,92.58,92.58,0,0,0,.76,13v.07a88.28,88.28,0,0,0,15.83,40.17A12.17,12.17,0,0,0,74.2,251.19h0c-18.63-25.76-15.69-62.78,8.35-86.81A70.33,70.33,0,0,1,92.67,156l.1-.08a68.29,68.29,0,0,1,19.76-9.31,81.36,81.36,0,0,1,28.14-4.47h0a106.89,106.89,0,0,1,7.82-35.35l.09-.23a68.46,68.46,0,0,1,7.34-13.84,72.13,72.13,0,0,1,4.54-5.93h0c1.23-1.46,2.53-2.86,3.89-4.22,24-24,61.06-27,86.83-8.36a12.07,12.07,0,0,0,15.57-1.33h0a12.11,12.11,0,0,0-1.38-18.35C230.2,29,179.77,32.8,147.2,65.36a93.08,93.08,0,0,0-26.9,54.94"/></clipPath><linearGradient id="Gradiente_sem_nome_3" x1="426.61" y1="-284.45" x2="427.19" y2="-284.45" gradientTransform="matrix(0, 155.24, -155.24, 0, -44020.23, -66134)" xlink:href="#Gradiente_sem_nome_2"/><clipPath id="clip-path-3" transform="translate(0 0)"><path class="cls-1" d="M286.2,92.79V281.54a4.6,4.6,0,0,1-4.59,4.59H92.88a4.59,4.59,0,1,0,0,9.18l203.18.64h0l-.63-203.19a4.59,4.59,0,0,0-9.18,0"/></clipPath><linearGradient id="Gradiente_sem_nome_4" x1="426.37" y1="-286.84" x2="426.94" y2="-286.84" gradientTransform="translate(79812 118591.18) rotate(-90) scale(277.4)" gradientUnits="userSpaceOnUse"><stop offset="0" stop-color="#fa2f8a"/><stop offset="0.24" stop-color="#fa2f8a"/><stop offset="0.72" stop-color="#fecb22"/><stop offset="1" stop-color="#fecb22"/></linearGradient></defs><title>favicon</title><g class="cls-2"><rect class="cls-3" x="87.55" y="155.15" width="300.47" height="164.93" transform="translate(-98.38 237.74) rotate(-45)"/></g><g class="cls-4"><rect class="cls-5" x="-12.27" y="93.13" width="300.63" height="89.82" transform="translate(-57.18 138.05) rotate(-45)"/></g><g class="cls-6"><rect class="cls-7" x="97.17" y="165.88" width="290.01" height="152.4" transform="translate(-100.25 242.15) rotate(-45)"/></g></svg>