<svg id="edicao" xmlns="http://www.w3.org/2000/svg" xmlns:xlink="http://www.w3.org/1999/xlink" viewBox="0 0 1140.52 402.16"><defs><style>.cls-1{fill:url(#Gradiente_sem_nome_4);}.cls-2{fill:none;}.cls-3{fill:#fff;}.cls-4{clip-path:url(#clip-path);}.cls-5{fill:url(#Gradiente_sem_nome);}.cls-6{clip-path:url(#clip-path-2);}.cls-7{fill:url(#Gradiente_sem_nome-2);}.cls-8{clip-path:url(#clip-path-3);}.cls-9{mask:url(#mask);}.cls-10{fill:url(#Gradiente_sem_nome_3);}</style><linearGradient id="Gradiente_sem_nome_4" x1="-0.52" y1="767.57" x2="0.05" y2="767.57" gradientTransform="matrix(0, -277.4, -277.4, 0, 213312.2, 1210.59)" gradientUnits="userSpaceOnUse"><stop offset="0" stop-color="#4d4d4d"/><stop offset="0.24" stop-color="#4d4d4d"/><stop offset="0.72" stop-color="#4d4d4d"/><stop offset="1" stop-color="#4d4d4d"/></linearGradient><clipPath id="clip-path" transform="translate(-149.8 -1037.88)"><path class="cls-2" d="M425.7,1126.17v183.94a3.49,3.49,0,0,1-3.49,3.49H238.27a9.81,9.81,0,0,0,0,19.62l207.61.57,0,0v0h0l0,0-.57-207.61a9.8,9.8,0,0,0-9.8-9.78h0a9.8,9.8,0,0,0-9.81,9.8"/></clipPath><linearGradient id="Gradiente_sem_nome" x1="-0.51" y1="767.58" x2="0.06" y2="767.58" gradientTransform="matrix(0, -283.38, -283.38, 0, 217901.89, 1212.38)" gradientUnits="userSpaceOnUse"><stop offset="0" stop-color="#fa2f8a"/><stop offset="1" stop-color="#fed61b"/></linearGradient><clipPath id="clip-path-2" transform="translate(-149.8 -1037.88)"><path class="cls-2" d="M270.11,1158.18a93,93,0,0,0-55,26.92,94.05,94.05,0,0,0-22.75,36.66.5.5,0,0,1,0,.13,92.39,92.39,0,0,0-4.74,27.89,1.55,1.55,0,0,0,0,.22,91.88,91.88,0,0,0,.76,13s0,0,0,.07a88.23,88.23,0,0,0,15.83,40.17A12.14,12.14,0,0,0,224,1289.07c-18.63-25.76-15.69-62.78,8.35-86.81a70.64,70.64,0,0,1,10.12-8.42l.1-.08a68.35,68.35,0,0,1,19.76-9.31,81.34,81.34,0,0,1,28.14-4.47h0a107,107,0,0,1,7.82-35.35l.09-.23a68.82,68.82,0,0,1,7.34-13.84,71.11,71.11,0,0,1,4.54-5.93h0c1.23-1.46,2.53-2.86,3.89-4.22,24-24,61.06-27,86.83-8.36a12.06,12.06,0,0,0,15.57-1.33h0a12.1,12.1,0,0,0-1.38-18.35C380,1066.9,329.57,1070.68,297,1103.24a93.07,93.07,0,0,0-26.9,54.94"/></clipPath><linearGradient id="Gradiente_sem_nome-2" x1="2.2" y1="768.77" x2="2.78" y2="768.77" gradientTransform="matrix(0, 155.24, 155.24, 0, -119052.5, 790.04)" xlink:href="#Gradiente_sem_nome"/><clipPath id="clip-path-3" transform="translate(-149.8 -1037.88)"><path class="cls-2" d="M436,1130.67l0,188.75a4.59,4.59,0,0,1-4.59,4.59H242.68a4.59,4.59,0,0,0,0,9.18l203.18.64h0l-.63-203.19a4.59,4.59,0,0,0-9.18,0"/></clipPath><mask id="mask" x="85.76" y="85.67" width="312.83" height="312.83" maskUnits="userSpaceOnUse"><g transform="translate(-149.8 -1037.88)"><rect class="cls-1" x="246.97" y="1203.76" width="290.01" height="152.4" transform="translate(-790.26 652.06) rotate(-45)"/></g></mask><linearGradient id="Gradiente_sem_nome_3" x1="-0.52" y1="767.57" x2="0.05" y2="767.57" gradientTransform="matrix(0, -277.4, -277.4, 0, 213312.22, 1210.59)" gradientUnits="userSpaceOnUse"><stop offset="0" stop-color="#fa2f8a"/><stop offset="0.24" stop-color="#fa2f8a"/><stop offset="0.72" stop-color="#fecb22"/><stop offset="1" stop-color="#fecb22"/></linearGradient></defs><title>logo-2</title><path class="cls-3" d="M476.71,1250.81q-4.14,0-6.3-2.17t-2.17-6.31v-115.8q0-4.14,2.17-6.3t6.3-2.17h70.05a6.65,6.65,0,0,1,4.9,1.7,6.34,6.34,0,0,1,1.69,4.7,5.92,5.92,0,0,1-6.59,6.59H483.31v46h59.5a6.84,6.84,0,0,1,4.89,1.6,6.3,6.3,0,0,1,1.7,4.8,5.94,5.94,0,0,1-6.59,6.59h-59.5v47.83h63.45a6.64,6.64,0,0,1,4.9,1.69,6.36,6.36,0,0,1,1.69,4.71,5.93,5.93,0,0,1-6.59,6.59Z" transform="translate(-149.8 -1037.88)"/><path class="cls-3" d="M586.49,1250.81c-2.76,0-4.87-.72-6.31-2.17s-2.16-3.54-2.16-6.31v-115.8q0-4.14,2.16-6.3c1.44-1.45,3.55-2.17,6.31-2.17h36.34q32.19,0,49.71,17t17.51,49.33q0,16.2-4.42,28.53a54.41,54.41,0,0,1-13.09,20.8,56.09,56.09,0,0,1-21.09,12.81q-12.42,4.33-28.62,4.33Zm7-13.18H621.7a69.49,69.49,0,0,0,22.88-3.39,41.66,41.66,0,0,0,16.19-10,41,41,0,0,0,9.7-16.67,76.91,76.91,0,0,0,3.2-23.25q0-26.55-13-39.82t-39-13.28H593.46Z" transform="translate(-149.8 -1037.88)"/><path class="cls-3" d="M725.45,1252.13a7.41,7.41,0,0,1-5.75-2.17,8.49,8.49,0,0,1-2-5.93V1124.84a8.45,8.45,0,0,1,2-6,9,9,0,0,1,11.49,0,8.41,8.41,0,0,1,2,6V1244a8.7,8.7,0,0,1-1.89,5.93C730,1251.4,728.08,1252.13,725.45,1252.13Z" transform="translate(-149.8 -1037.88)"/><path class="cls-3" d="M774.4,1252.13a8.28,8.28,0,0,1-6.12-2.17c-1.44-1.44-2.16-3.55-2.16-6.31V1126.53q0-4.14,2.16-6.3c1.44-1.45,3.55-2.17,6.31-2.17h68.35a6.65,6.65,0,0,1,4.9,1.7,6.34,6.34,0,0,1,1.69,4.7,5.92,5.92,0,0,1-6.59,6.59H781.56v46.32H839a7,7,0,0,1,5,1.7,6.17,6.17,0,0,1,1.78,4.7,6.43,6.43,0,0,1-1.78,4.9,7,7,0,0,1-5,1.7H781.56v53.28Q781.56,1252.13,774.4,1252.13Z" transform="translate(-149.8 -1037.88)"/><path class="cls-3" d="M877,1252.13a7.38,7.38,0,0,1-5.74-2.17,8.45,8.45,0,0,1-2-5.93V1124.84a8.41,8.41,0,0,1,2-6,9,9,0,0,1,11.48,0,8.41,8.41,0,0,1,2,6V1244a8.75,8.75,0,0,1-1.88,5.93C881.6,1251.4,879.65,1252.13,877,1252.13Z" transform="translate(-149.8 -1037.88)"/><path class="cls-3" d="M975.12,1252.5q-19.59,0-33.52-8.28a54.45,54.45,0,0,1-21.37-23.54q-7.44-15.26-7.44-36.34A88.05,88.05,0,0,1,917,1156a59.15,59.15,0,0,1,12.24-21.28A54.09,54.09,0,0,1,949,1121.17a68.21,68.21,0,0,1,26.17-4.8,74.35,74.35,0,0,1,22.22,3.29,53.06,53.06,0,0,1,18.26,9.7,9.51,9.51,0,0,1,3.3,4.23,7,7,0,0,1,.18,4.52,7.57,7.57,0,0,1-2.26,3.58,5.62,5.62,0,0,1-3.86,1.41,9.41,9.41,0,0,1-5.08-1.88,46.62,46.62,0,0,0-14.87-8.1,56.52,56.52,0,0,0-17.52-2.63q-14.87,0-25.23,6.31a39.23,39.23,0,0,0-15.63,18.35q-5.26,12.06-5.27,29.19t5.27,29.28a39.15,39.15,0,0,0,15.63,18.45q10.37,6.32,25.23,6.31a55.68,55.68,0,0,0,17.52-2.73,49.94,49.94,0,0,0,15.25-8.19,8.82,8.82,0,0,1,5.08-1.79,6,6,0,0,1,3.77,1.41,7.4,7.4,0,0,1,2.16,3.39,7.26,7.26,0,0,1,0,4.33,7.61,7.61,0,0,1-2.92,4A53.84,53.84,0,0,1,997.81,1249,72.59,72.59,0,0,1,975.12,1252.5Z" transform="translate(-149.8 -1037.88)"/><path class="cls-3" d="M1038.2,1252.13a7.59,7.59,0,0,1-4.81-1.42,5.43,5.43,0,0,1-2.07-3.76,10.42,10.42,0,0,1,1-5.37l51.78-117.87a12.49,12.49,0,0,1,4-5.37,9.17,9.17,0,0,1,10.35,0,11.33,11.33,0,0,1,3.86,5.37l52,117.87a9.74,9.74,0,0,1,1.23,5.46,5.33,5.33,0,0,1-2,3.77,7.56,7.56,0,0,1-4.71,1.32,8.07,8.07,0,0,1-5.46-1.79,12.84,12.84,0,0,1-3.39-5.18l-13.93-32.2,7.53,4h-81l7.72-4-13.74,32.2a16.81,16.81,0,0,1-3.58,5.27A7,7,0,0,1,1038.2,1252.13Zm55-116-30.32,71.36-4.52-3.58H1128l-4.14,3.58-30.32-71.36Z" transform="translate(-149.8 -1037.88)"/><path class="cls-3" d="M1186.76,1250.81q-4.15,0-6.31-2.17c-1.44-1.44-2.17-3.54-2.17-6.31v-115.8c0-2.76.73-4.86,2.17-6.3s3.54-2.17,6.31-2.17h36.34q32.19,0,49.71,17t17.51,49.33q0,16.2-4.43,28.53a54.27,54.27,0,0,1-13.08,20.8,56.16,56.16,0,0,1-21.09,12.81q-12.43,4.33-28.62,4.33Zm7-13.18H1222a69.49,69.49,0,0,0,22.88-3.39,41.66,41.66,0,0,0,16.19-10,41,41,0,0,0,9.7-16.67,76.91,76.91,0,0,0,3.2-23.25q0-26.55-13-39.82t-39-13.28h-28.25Z" transform="translate(-149.8 -1037.88)"/><g class="cls-4"><rect class="cls-5" x="237.35" y="1193.03" width="300.47" height="164.93" transform="translate(-938.19 -390.23) rotate(-45)"/></g><g class="cls-6"><rect class="cls-7" x="137.53" y="1131.01" width="300.63" height="89.82" transform="translate(-896.99 -489.92) rotate(-45)"/></g><g class="cls-8"><g class="cls-9"><rect class="cls-10" x="246.97" y="1203.76" width="290.01" height="152.4" transform="translate(-940.06 -385.82) rotate(-45)"/></g></g><path class="cls-3" d="M483.36,1334.32a19.06,19.06,0,0,1-10-2.47,16.14,16.14,0,0,1-6.35-7,24.39,24.39,0,0,1-2.22-10.81,26.19,26.19,0,0,1,1.26-8.42,17.64,17.64,0,0,1,3.64-6.32,16.08,16.08,0,0,1,5.85-4,20.16,20.16,0,0,1,7.78-1.43,22.12,22.12,0,0,1,6.61,1,15.69,15.69,0,0,1,5.43,2.88,2.82,2.82,0,0,1,1,1.26,2.13,2.13,0,0,1,.05,1.34,2.25,2.25,0,0,1-.67,1.07,1.68,1.68,0,0,1-1.15.42,2.83,2.83,0,0,1-1.51-.56,13.83,13.83,0,0,0-4.42-2.41,16.83,16.83,0,0,0-5.21-.78,14.2,14.2,0,0,0-7.5,1.87,11.63,11.63,0,0,0-4.64,5.46,21.49,21.49,0,0,0-1.57,8.67,21.73,21.73,0,0,0,1.57,8.71,11.58,11.58,0,0,0,4.64,5.48,14.11,14.11,0,0,0,7.5,1.88,16.57,16.57,0,0,0,5.21-.81,14.64,14.64,0,0,0,4.53-2.44,2.63,2.63,0,0,1,1.51-.53,1.77,1.77,0,0,1,1.12.42,2.21,2.21,0,0,1,.65,2.3,2.25,2.25,0,0,1-.87,1.17,16.17,16.17,0,0,1-5.51,3A21.59,21.59,0,0,1,483.36,1334.32Z" transform="translate(-149.8 -1037.88)"/><path class="cls-3" d="M512.69,1334.32a13.15,13.15,0,0,1-6.88-1.74,11.63,11.63,0,0,1-4.51-4.9,16.39,16.39,0,0,1-1.59-7.47,17.88,17.88,0,0,1,.89-5.85,12.37,12.37,0,0,1,2.63-4.45,11.65,11.65,0,0,1,4.12-2.82,13.74,13.74,0,0,1,5.34-1,13.28,13.28,0,0,1,6.89,1.73,11.67,11.67,0,0,1,4.5,4.9,16.32,16.32,0,0,1,1.6,7.47,17.52,17.52,0,0,1-.9,5.82,12.48,12.48,0,0,1-2.63,4.45,11.55,11.55,0,0,1-4.11,2.86A14,14,0,0,1,512.69,1334.32Zm0-3.64a7.65,7.65,0,0,0,7.36-4.81,14,14,0,0,0,1-5.66c0-3.39-.76-6-2.27-7.78a7.59,7.59,0,0,0-6.13-2.68,8.09,8.09,0,0,0-4.45,1.2,7.86,7.86,0,0,0-2.91,3.52,14.13,14.13,0,0,0-1,5.74c0,3.36.76,6,2.29,7.75A7.59,7.59,0,0,0,512.69,1330.68Z" transform="translate(-149.8 -1037.88)"/><path class="cls-3" d="M534.75,1334.21a2.15,2.15,0,0,1-1.68-.62,2.46,2.46,0,0,1-.56-1.74v-23.34a2.34,2.34,0,0,1,.56-1.7,2.13,2.13,0,0,1,1.62-.59,2.23,2.23,0,0,1,1.65.59,2.31,2.31,0,0,1,.59,1.7v4.82l-.62-.67a9.24,9.24,0,0,1,3.84-4.9,11.36,11.36,0,0,1,6.13-1.65,11.24,11.24,0,0,1,5.4,1.17,7.37,7.37,0,0,1,3.22,3.56,14.91,14.91,0,0,1,1.06,6v15a2.43,2.43,0,0,1-.59,1.74,2.17,2.17,0,0,1-1.65.62,2.25,2.25,0,0,1-1.71-.62,2.42,2.42,0,0,1-.58-1.74v-14.72q0-3.8-1.49-5.57c-1-1.17-2.56-1.76-4.73-1.76a7.86,7.86,0,0,0-6,2.32,8.62,8.62,0,0,0-2.21,6.19v13.54A2.06,2.06,0,0,1,534.75,1334.21Z" transform="translate(-149.8 -1037.88)"/><path class="cls-3" d="M575.21,1334.32a11.31,11.31,0,0,1-5.34-1.15,7.23,7.23,0,0,1-3.22-3.36,12.35,12.35,0,0,1-1.06-5.4v-14.27h-3.75a2,2,0,0,1-1.46-.48,1.7,1.7,0,0,1-.5-1.31,1.62,1.62,0,0,1,.5-1.29,2.13,2.13,0,0,1,1.46-.45h3.75v-6.44a2.24,2.24,0,0,1,.61-1.7,2.3,2.3,0,0,1,1.68-.59,2.19,2.19,0,0,1,1.65.59,2.31,2.31,0,0,1,.59,1.7v6.44h7a2.13,2.13,0,0,1,1.46.45,1.66,1.66,0,0,1,.5,1.29,1.73,1.73,0,0,1-.5,1.31,2,2,0,0,1-1.46.48h-7V1324a7.55,7.55,0,0,0,1.34,4.84,5.29,5.29,0,0,0,4.37,1.66,6.45,6.45,0,0,0,1.82-.23,4.51,4.51,0,0,1,1.26-.22.92.92,0,0,1,.84.33,2.12,2.12,0,0,1,.33,1.35,3,3,0,0,1-.25,1.23,1.46,1.46,0,0,1-.87.78,12.43,12.43,0,0,1-1.76.42A11.45,11.45,0,0,1,575.21,1334.32Z" transform="translate(-149.8 -1037.88)"/><path class="cls-3" d="M586.18,1334.21a2.24,2.24,0,0,1-1.7-.62,2.38,2.38,0,0,1-.59-1.74v-23.34a2.39,2.39,0,0,1,.56-1.7,2.13,2.13,0,0,1,1.62-.59,2.23,2.23,0,0,1,1.65.59,2.31,2.31,0,0,1,.59,1.7v4.54h-.56a8.91,8.91,0,0,1,3.42-5.1,11.09,11.09,0,0,1,6.21-1.9,1.76,1.76,0,0,1,1.34.37,1.88,1.88,0,0,1,.56,1.42,2,2,0,0,1-.45,1.51,2.34,2.34,0,0,1-1.56.68l-.9.11a8.92,8.92,0,0,0-5.85,2.43,7.88,7.88,0,0,0-2,5.74v13.54a2.43,2.43,0,0,1-.59,1.74A2.25,2.25,0,0,1,586.18,1334.21Z" transform="translate(-149.8 -1037.88)"/><path class="cls-3" d="M614.9,1334.32a13.18,13.18,0,0,1-6.89-1.74,11.61,11.61,0,0,1-4.5-4.9,16.27,16.27,0,0,1-1.6-7.47,17.87,17.87,0,0,1,.9-5.85,12.09,12.09,0,0,1,2.63-4.45,11.52,11.52,0,0,1,4.11-2.82,13.82,13.82,0,0,1,5.35-1,13.24,13.24,0,0,1,6.88,1.73,11.76,11.76,0,0,1,4.51,4.9,16.45,16.45,0,0,1,1.59,7.47A17.79,17.79,0,0,1,627,1326a12.63,12.63,0,0,1-2.63,4.45,11.5,11.5,0,0,1-4.12,2.86A14,14,0,0,1,614.9,1334.32Zm0-3.64a7.65,7.65,0,0,0,7.36-4.81,14,14,0,0,0,1-5.66c0-3.39-.75-6-2.26-7.78a7.62,7.62,0,0,0-6.13-2.68,8.07,8.07,0,0,0-4.45,1.2,7.86,7.86,0,0,0-2.91,3.52,14.12,14.12,0,0,0-1,5.74c0,3.36.77,6,2.3,7.75A7.59,7.59,0,0,0,614.9,1330.68Z" transform="translate(-149.8 -1037.88)"/><path class="cls-3" d="M643,1334.32a7.67,7.67,0,0,1-6.16-2.47q-2.13-2.46-2.13-7v-28.54a2.4,2.4,0,0,1,.56-1.71A2.21,2.21,0,0,1,637,1294a2.34,2.34,0,0,1,1.68.59,2.25,2.25,0,0,1,.62,1.71v28.21a7.07,7.07,0,0,0,1.2,4.5,4.31,4.31,0,0,0,3.55,1.49,6,6,0,0,0,.9-.06,5.12,5.12,0,0,1,.78-.06.94.94,0,0,1,.87.28,2.45,2.45,0,0,1,.25,1.35,2.21,2.21,0,0,1-.45,1.51,2.43,2.43,0,0,1-1.45.67l-.95.11A8.21,8.21,0,0,1,643,1334.32Z" transform="translate(-149.8 -1037.88)"/><path class="cls-3" d="M663.26,1334.32a15.15,15.15,0,0,1-7.42-1.71,11.92,11.92,0,0,1-4.81-4.84,17.26,17.26,0,0,1,0-14.92,12.54,12.54,0,0,1,4.62-4.95,12.74,12.74,0,0,1,6.8-1.79,12.58,12.58,0,0,1,4.92.92,10.28,10.28,0,0,1,3.73,2.66,11.93,11.93,0,0,1,2.35,4.2,17.68,17.68,0,0,1,.81,5.54,1.59,1.59,0,0,1-.51,1.31,2.2,2.2,0,0,1-1.45.42H652.79v-3h18.42l-.9.72a13,13,0,0,0-.9-5.12,7,7,0,0,0-2.6-3.22,7.7,7.7,0,0,0-4.28-1.12,8.54,8.54,0,0,0-4.84,1.32,8.17,8.17,0,0,0-3,3.64,13.51,13.51,0,0,0-1,5.4v.34q0,5.14,2.49,7.83a9.18,9.18,0,0,0,7.08,2.69,14.34,14.34,0,0,0,3.78-.51,12.5,12.5,0,0,0,3.66-1.67,2.46,2.46,0,0,1,1.43-.48,1.61,1.61,0,0,1,1,.39,1.91,1.91,0,0,1,.53.9,1.81,1.81,0,0,1-.12,1.15,2.24,2.24,0,0,1-1,1.06,13.87,13.87,0,0,1-4.36,2.07A18.08,18.08,0,0,1,663.26,1334.32Z" transform="translate(-149.8 -1037.88)"/><path class="cls-3" d="M707.48,1334.32a15.15,15.15,0,0,1-7.42-1.71,11.86,11.86,0,0,1-4.81-4.84,17.26,17.26,0,0,1,0-14.92,12.54,12.54,0,0,1,4.62-4.95,13.73,13.73,0,0,1,11.72-.87,10.16,10.16,0,0,1,3.72,2.66,11.78,11.78,0,0,1,2.35,4.2,17.39,17.39,0,0,1,.82,5.54,1.59,1.59,0,0,1-.51,1.31,2.2,2.2,0,0,1-1.45.42H697v-3h18.41l-.89.72a13,13,0,0,0-.9-5.12,7,7,0,0,0-2.6-3.22,7.72,7.72,0,0,0-4.28-1.12,8.52,8.52,0,0,0-4.84,1.32,8.1,8.1,0,0,0-3,3.64,13.51,13.51,0,0,0-1,5.4v.34q0,5.14,2.5,7.83a9.18,9.18,0,0,0,7.08,2.69,14.32,14.32,0,0,0,3.77-.51,12.55,12.55,0,0,0,3.67-1.67,2.46,2.46,0,0,1,1.43-.48,1.57,1.57,0,0,1,1,.39,1.93,1.93,0,0,1,.54.9,1.81,1.81,0,0,1-.12,1.15,2.29,2.29,0,0,1-1,1.06,13.87,13.87,0,0,1-4.36,2.07A18.08,18.08,0,0,1,707.48,1334.32Z" transform="translate(-149.8 -1037.88)"/><path class="cls-3" d="M742.57,1333.81a2.51,2.51,0,0,1-1.87-.64,2.54,2.54,0,0,1-.65-1.88v-34.42a2.27,2.27,0,0,1,2.52-2.52h10.8q9.57,0,14.78,5t5.21,14.66a25.06,25.06,0,0,1-1.32,8.49,16.13,16.13,0,0,1-3.89,6.18,16.73,16.73,0,0,1-6.27,3.81,26,26,0,0,1-8.51,1.28Zm2.07-3.91H753a20.68,20.68,0,0,0,6.8-1,11.75,11.75,0,0,0,7.7-7.92,23,23,0,0,0,1-6.92q0-7.89-3.87-11.83t-11.58-4h-8.4Z" transform="translate(-149.8 -1037.88)"/><path class="cls-3" d="M783.21,1300.06a3,3,0,0,1-2.19-.75,2.74,2.74,0,0,1-.78-2,2.61,2.61,0,0,1,.78-2,3.81,3.81,0,0,1,4.4,0,2.67,2.67,0,0,1,.75,2,2.8,2.8,0,0,1-.75,2A3,3,0,0,1,783.21,1300.06Zm0,34a2.09,2.09,0,0,1-1.68-.64,2.66,2.66,0,0,1-.56-1.82v-22.89a2.53,2.53,0,0,1,.56-1.79,2.15,2.15,0,0,1,1.68-.62,2.29,2.29,0,0,1,1.68.62,2.41,2.41,0,0,1,.61,1.79v22.89a2.57,2.57,0,0,1-.59,1.82A2.18,2.18,0,0,1,783.21,1334.09Z" transform="translate(-149.8 -1037.88)"/><path class="cls-3" d="M803.13,1334.32a21.42,21.42,0,0,1-5.06-.62,13.93,13.93,0,0,1-4.73-2.13,2.09,2.09,0,0,1-.79-.92,2,2,0,0,1-.14-1.06,1.81,1.81,0,0,1,.45-.93,1.47,1.47,0,0,1,.9-.47,2,2,0,0,1,1.2.25,15.68,15.68,0,0,0,4.23,1.88,16.23,16.23,0,0,0,4.06.53,8.13,8.13,0,0,0,4.81-1.18,3.74,3.74,0,0,0,1.62-3.19,3.14,3.14,0,0,0-1.06-2.49,7.66,7.66,0,0,0-3.36-1.43l-5.09-1.12a9.73,9.73,0,0,1-5.24-2.52,6.43,6.43,0,0,1-1.7-4.64,7.18,7.18,0,0,1,1.31-4.34,8.64,8.64,0,0,1,3.72-2.83,14.47,14.47,0,0,1,5.6-1,16.57,16.57,0,0,1,4.67.64,11.89,11.89,0,0,1,4,2,2,2,0,0,1,.75.93,1.75,1.75,0,0,1,.06,1.06,1.91,1.91,0,0,1-.53.9,1.65,1.65,0,0,1-1,.42,1.89,1.89,0,0,1-1.17-.34,12.79,12.79,0,0,0-3.42-1.65,11.37,11.37,0,0,0-3.41-.53,7.79,7.79,0,0,0-4.76,1.23,3.87,3.87,0,0,0-1.62,3.24,3.5,3.5,0,0,0,1,2.58,6.06,6.06,0,0,0,3.13,1.45l5.09,1.07a11.29,11.29,0,0,1,5.46,2.49,6,6,0,0,1,1.82,4.62,6.92,6.92,0,0,1-3,5.87A13,13,0,0,1,803.13,1334.32Z" transform="translate(-149.8 -1037.88)"/><path class="cls-3" d="M831.51,1334.32a11.28,11.28,0,0,1-5.34-1.15,7.23,7.23,0,0,1-3.22-3.36,12.35,12.35,0,0,1-1.07-5.4v-14.27h-3.75a2,2,0,0,1-1.45-.48,1.7,1.7,0,0,1-.51-1.31,1.63,1.63,0,0,1,.51-1.29,2.1,2.1,0,0,1,1.45-.45h3.75v-6.44a2.24,2.24,0,0,1,.62-1.7,2.3,2.3,0,0,1,1.68-.59,2.19,2.19,0,0,1,1.65.59,2.31,2.31,0,0,1,.59,1.7v6.44h7.05a2.1,2.1,0,0,1,1.45.45,1.63,1.63,0,0,1,.51,1.29,1.7,1.7,0,0,1-.51,1.31,2,2,0,0,1-1.45.48h-7.05V1324a7.49,7.49,0,0,0,1.34,4.84,5.29,5.29,0,0,0,4.37,1.66,6.5,6.5,0,0,0,1.82-.23,4.51,4.51,0,0,1,1.26-.22.89.89,0,0,1,.83.33,2.05,2.05,0,0,1,.34,1.35,3,3,0,0,1-.25,1.23,1.46,1.46,0,0,1-.87.78,12.78,12.78,0,0,1-1.76.42A11.45,11.45,0,0,1,831.51,1334.32Z" transform="translate(-149.8 -1037.88)"/><path class="cls-3" d="M842.48,1334.21a2.27,2.27,0,0,1-1.71-.62,2.42,2.42,0,0,1-.58-1.74v-23.34a2.34,2.34,0,0,1,.56-1.7,2.13,2.13,0,0,1,1.62-.59,2.23,2.23,0,0,1,1.65.59,2.31,2.31,0,0,1,.59,1.7v4.54h-.56a8.85,8.85,0,0,1,3.41-5.1,11.12,11.12,0,0,1,6.21-1.9,1.8,1.8,0,0,1,1.35.37,1.91,1.91,0,0,1,.56,1.42,2,2,0,0,1-.45,1.51,2.37,2.37,0,0,1-1.57.68l-.89.11a8.92,8.92,0,0,0-5.85,2.43,7.88,7.88,0,0,0-2,5.74v13.54a2.43,2.43,0,0,1-.59,1.74A2.25,2.25,0,0,1,842.48,1334.21Z" transform="translate(-149.8 -1037.88)"/><path class="cls-3" d="M862.46,1300.06a3,3,0,0,1-2.18-.75,2.74,2.74,0,0,1-.78-2,2.61,2.61,0,0,1,.78-2,3.79,3.79,0,0,1,4.39,0,2.63,2.63,0,0,1,.76,2,2.76,2.76,0,0,1-.76,2A3,3,0,0,1,862.46,1300.06Zm0,34a2.12,2.12,0,0,1-1.68-.64,2.71,2.71,0,0,1-.56-1.82v-22.89a2.58,2.58,0,0,1,.56-1.79,2.18,2.18,0,0,1,1.68-.62,2.27,2.27,0,0,1,1.68.62,2.42,2.42,0,0,1,.62,1.79v22.89a2.62,2.62,0,0,1-.59,1.82A2.19,2.19,0,0,1,862.46,1334.09Z" transform="translate(-149.8 -1037.88)"/><path class="cls-3" d="M887,1334.32a10.61,10.61,0,0,1-6.35-1.91,9,9,0,0,1-3.56-5.09l.62-.61v5.14a2.43,2.43,0,0,1-.59,1.74,2.55,2.55,0,0,1-3.33,0,2.51,2.51,0,0,1-.56-1.74v-35.59a2.4,2.4,0,0,1,.56-1.71,2.21,2.21,0,0,1,1.68-.59,2.34,2.34,0,0,1,1.68.59,2.25,2.25,0,0,1,.61,1.71v16.68h-.67a9.26,9.26,0,0,1,3.58-5,10.77,10.77,0,0,1,6.33-1.84,11.71,11.71,0,0,1,6.38,1.7,11.35,11.35,0,0,1,4.17,4.87,17.59,17.59,0,0,1,1.48,7.53,17.37,17.37,0,0,1-1.48,7.47,11.36,11.36,0,0,1-4.2,4.9A11.52,11.52,0,0,1,887,1334.32Zm-1-3.64a7.94,7.94,0,0,0,4.45-1.23,8,8,0,0,0,2.91-3.58,14,14,0,0,0,1-5.66c0-3.39-.75-6-2.26-7.78a7.62,7.62,0,0,0-6.13-2.68,8.08,8.08,0,0,0-4.42,1.2,7.79,7.79,0,0,0-2.94,3.52,14.12,14.12,0,0,0-1,5.74c0,3.36.77,6,2.3,7.75A7.59,7.59,0,0,0,886,1330.68Z" transform="translate(-149.8 -1037.88)"/><path class="cls-3" d="M915.47,1334.32a11,11,0,0,1-5.46-1.21,7.55,7.55,0,0,1-3.25-3.61,14.61,14.61,0,0,1-1.09-6v-15a2,2,0,0,1,2.24-2.29,2.4,2.4,0,0,1,1.71.56,2.29,2.29,0,0,1,.59,1.73v15q0,3.58,1.48,5.34a5.76,5.76,0,0,0,4.67,1.77,7.4,7.4,0,0,0,5.66-2.35,8.72,8.72,0,0,0,2.18-6.16v-13.55a2.29,2.29,0,0,1,.59-1.73,2.4,2.4,0,0,1,1.71-.56,2.34,2.34,0,0,1,1.65.56,2.29,2.29,0,0,1,.58,1.73v23.34c0,1.57-.72,2.36-2.18,2.36a2.17,2.17,0,0,1-1.65-.62,2.43,2.43,0,0,1-.59-1.74v-5.09l.73.78a9.56,9.56,0,0,1-3.67,5A10.2,10.2,0,0,1,915.47,1334.32Z" transform="translate(-149.8 -1037.88)"/><path class="cls-3" d="M939.48,1300.06a3,3,0,0,1-2.18-.75,2.7,2.7,0,0,1-.79-2,2.58,2.58,0,0,1,.79-2,3.79,3.79,0,0,1,4.39,0,2.63,2.63,0,0,1,.76,2,2.76,2.76,0,0,1-.76,2A3,3,0,0,1,939.48,1300.06Zm0,34a2.09,2.09,0,0,1-1.68-.64,2.71,2.71,0,0,1-.56-1.82v-22.89a2.58,2.58,0,0,1,.56-1.79,2.15,2.15,0,0,1,1.68-.62,2.27,2.27,0,0,1,1.68.62,2.42,2.42,0,0,1,.62,1.79v22.89a2.62,2.62,0,0,1-.59,1.82A2.19,2.19,0,0,1,939.48,1334.09Z" transform="translate(-149.8 -1037.88)"/><path class="cls-3" d="M961.76,1334.32a13.44,13.44,0,0,1-7.06-1.79,12,12,0,0,1-4.56-5,16.7,16.7,0,0,1-1.59-7.48,17.87,17.87,0,0,1,.89-5.82,12.11,12.11,0,0,1,2.63-4.39,11.46,11.46,0,0,1,4.17-2.77,15,15,0,0,1,5.52-1,15.51,15.51,0,0,1,4.2.61,10.58,10.58,0,0,1,4,2.13,1.78,1.78,0,0,1,.73,2,2.09,2.09,0,0,1-.56.9,1.66,1.66,0,0,1-1,.42,1.75,1.75,0,0,1-1.21-.39,9.05,9.05,0,0,0-3-1.57,10.21,10.21,0,0,0-2.91-.45,9.49,9.49,0,0,0-3.81.7,7.51,7.51,0,0,0-2.74,2,8.63,8.63,0,0,0-1.71,3.19,15.07,15.07,0,0,0-.59,4.42,11.88,11.88,0,0,0,2.3,7.7,8,8,0,0,0,6.55,2.82,9.91,9.91,0,0,0,2.88-.45,9.67,9.67,0,0,0,3-1.56,1.71,1.71,0,0,1,1.18-.39,1.51,1.51,0,0,1,.95.42,1.81,1.81,0,0,1,.53.92,1.84,1.84,0,0,1,0,1.09,1.75,1.75,0,0,1-.72.92,11.31,11.31,0,0,1-3.92,2.1A14.26,14.26,0,0,1,961.76,1334.32Zm-.06,10.24a17.21,17.21,0,0,1-2.1-.14,7,7,0,0,1-2-.53,1.32,1.32,0,0,1-.84-.73,1.36,1.36,0,0,1-.06-1,1.34,1.34,0,0,1,.61-.75,1.25,1.25,0,0,1,1.13,0,6.45,6.45,0,0,0,1.42.39,12.49,12.49,0,0,0,1.71.11,4.62,4.62,0,0,0,2.35-.53,1.7,1.7,0,0,0,.9-1.54,1.41,1.41,0,0,0-.51-1.15,2.5,2.5,0,0,0-1.62-.42,6.15,6.15,0,0,0-.87.06,9.69,9.69,0,0,0-1,.17,2.67,2.67,0,0,1-.78.16,1.06,1.06,0,0,1-.56-.16.8.8,0,0,1-.25-.54,5.25,5.25,0,0,1,0-.86l.68-4.43h2.85l-.73,4.2-1.34-.33c.45-.12.89-.21,1.31-.28a6.61,6.61,0,0,1,1.21-.12,5.47,5.47,0,0,1,3.36,1A3.32,3.32,0,0,1,968,1340a3.94,3.94,0,0,1-1.73,3.33A7.55,7.55,0,0,1,961.7,1344.56Z" transform="translate(-149.8 -1037.88)"/><path class="cls-3" d="M984.71,1334.32a11.25,11.25,0,0,1-5-1.09,8.86,8.86,0,0,1-3.5-3,7.42,7.42,0,0,1-1.29-4.25,6.9,6.9,0,0,1,1.54-4.76,9,9,0,0,1,5.09-2.46,50.37,50.37,0,0,1,9.71-.73h2.52v3h-2.46a47.3,47.3,0,0,0-7.14.42,6.8,6.8,0,0,0-3.63,1.42,3.78,3.78,0,0,0-1,2.86,4.83,4.83,0,0,0,1.6,3.75,6.16,6.16,0,0,0,4.33,1.45,7.32,7.32,0,0,0,4-1.06,7.55,7.55,0,0,0,2.69-2.91,9,9,0,0,0,1-4.26v-6.38q0-3.46-1.4-5t-4.59-1.53a15.44,15.44,0,0,0-3.92.5,19.93,19.93,0,0,0-4.14,1.62,2,2,0,0,1-1.35.25,1.55,1.55,0,0,1-.89-.58,2,2,0,0,1-.14-2.19,2.14,2.14,0,0,1,1-.89,21.84,21.84,0,0,1,4.87-1.79,19.83,19.83,0,0,1,4.59-.56,13.06,13.06,0,0,1,5.82,1.14,7.4,7.4,0,0,1,3.41,3.47,13.74,13.74,0,0,1,1.12,6v15.16a2.6,2.6,0,0,1-.53,1.74,1.94,1.94,0,0,1-1.54.62,2.07,2.07,0,0,1-1.62-.62,2.46,2.46,0,0,1-.56-1.74v-4.36h.5a8.25,8.25,0,0,1-1.71,3.64,8.71,8.71,0,0,1-3.1,2.35A9.88,9.88,0,0,1,984.71,1334.32ZM978.32,1301a1.2,1.2,0,0,1-.92-.39,1.26,1.26,0,0,1-.19-1.18,11.06,11.06,0,0,1,.67-2.46,6.71,6.71,0,0,1,1.17-2,5.46,5.46,0,0,1,1.71-1.32,5.23,5.23,0,0,1,2.27-.47,4.5,4.5,0,0,1,2.43.64,15.34,15.34,0,0,1,2,1.46c.62.54,1.22,1,1.82,1.48a3.1,3.1,0,0,0,1.9.67,2.78,2.78,0,0,0,2.16-1,5.07,5.07,0,0,0,1.14-2.6,1.27,1.27,0,0,1,.48-.81,1.42,1.42,0,0,1,1-.2,1.2,1.2,0,0,1,.92.39,1.26,1.26,0,0,1,.2,1.18,9.7,9.7,0,0,1-1,3.13,6.31,6.31,0,0,1-1.93,2.24,4.76,4.76,0,0,1-2.85.84,4.53,4.53,0,0,1-2.44-.64,13.88,13.88,0,0,1-2-1.49A20.71,20.71,0,0,0,985,1297a3.22,3.22,0,0,0-1.91-.64,2.66,2.66,0,0,0-2.12,1,5.48,5.48,0,0,0-1.18,2.63,1.22,1.22,0,0,1-.48.78A1.33,1.33,0,0,1,978.32,1301Z" transform="translate(-149.8 -1037.88)"/><path class="cls-3" d="M1017.11,1334.32a13.15,13.15,0,0,1-6.88-1.74,11.7,11.7,0,0,1-4.51-4.9,16.39,16.39,0,0,1-1.59-7.47,18.15,18.15,0,0,1,.89-5.85,12.37,12.37,0,0,1,2.63-4.45,11.65,11.65,0,0,1,4.12-2.82,13.77,13.77,0,0,1,5.34-1,13.28,13.28,0,0,1,6.89,1.73,11.67,11.67,0,0,1,4.5,4.9,16.32,16.32,0,0,1,1.6,7.47,17.52,17.52,0,0,1-.9,5.82,12.34,12.34,0,0,1-2.63,4.45,11.46,11.46,0,0,1-4.11,2.86A14,14,0,0,1,1017.11,1334.32Zm0-3.64a7.63,7.63,0,0,0,7.36-4.81,13.85,13.85,0,0,0,1-5.66c0-3.39-.76-6-2.27-7.78a7.59,7.59,0,0,0-6.13-2.68,8.09,8.09,0,0,0-4.45,1.2,7.86,7.86,0,0,0-2.91,3.52,14.13,14.13,0,0,0-1,5.74c0,3.36.76,6,2.29,7.75A7.6,7.6,0,0,0,1017.11,1330.68Z" transform="translate(-149.8 -1037.88)"/><path class="cls-3" d="M1061.72,1334.32a11.52,11.52,0,0,1-6.35-1.74,11.36,11.36,0,0,1-4.2-4.9,17.37,17.37,0,0,1-1.48-7.47,17.59,17.59,0,0,1,1.48-7.53,11.28,11.28,0,0,1,4.2-4.87,11.75,11.75,0,0,1,6.35-1.7,10.75,10.75,0,0,1,6.33,1.84,9,9,0,0,1,3.53,5H1071v-16.68a2.06,2.06,0,0,1,2.29-2.3,2.27,2.27,0,0,1,1.66.59,2.32,2.32,0,0,1,.58,1.71v35.59a2.46,2.46,0,0,1-.56,1.74,2.15,2.15,0,0,1-1.68.62,2.19,2.19,0,0,1-1.65-.62,2.42,2.42,0,0,1-.58-1.74v-5.31l.61.78a9.08,9.08,0,0,1-3.55,5.09A10.64,10.64,0,0,1,1061.72,1334.32Zm1-3.64a7.65,7.65,0,0,0,7.36-4.81,14,14,0,0,0,1-5.66c0-3.39-.75-6-2.27-7.78a7.59,7.59,0,0,0-6.12-2.68,8.07,8.07,0,0,0-4.45,1.2,7.8,7.8,0,0,0-2.91,3.52,14,14,0,0,0-1,5.74c0,3.36.76,6,2.29,7.75A7.61,7.61,0,0,0,1062.68,1330.68Z" transform="translate(-149.8 -1037.88)"/><path class="cls-3" d="M1096.26,1334.32a15.15,15.15,0,0,1-7.42-1.71,11.92,11.92,0,0,1-4.81-4.84,17.26,17.26,0,0,1,0-14.92,12.54,12.54,0,0,1,4.62-4.95,12.74,12.74,0,0,1,6.8-1.79,12.58,12.58,0,0,1,4.92.92,10.28,10.28,0,0,1,3.73,2.66,11.93,11.93,0,0,1,2.35,4.2,17.68,17.68,0,0,1,.81,5.54,1.62,1.62,0,0,1-.5,1.31,2.23,2.23,0,0,1-1.46.42h-19.48v-3h18.42l-.9.72a13.19,13.19,0,0,0-.89-5.12,7.06,7.06,0,0,0-2.61-3.22,7.7,7.7,0,0,0-4.28-1.12,8.54,8.54,0,0,0-4.84,1.32,8.15,8.15,0,0,0-3,3.64,13.34,13.34,0,0,0-1,5.4v.34q0,5.14,2.49,7.83a9.18,9.18,0,0,0,7.08,2.69,14.34,14.34,0,0,0,3.78-.51,12.5,12.5,0,0,0,3.66-1.67,2.48,2.48,0,0,1,1.43-.48,1.59,1.59,0,0,1,1,.39,1.91,1.91,0,0,1,.53.9,1.88,1.88,0,0,1-.11,1.15,2.34,2.34,0,0,1-1,1.06,13.93,13.93,0,0,1-4.37,2.07A18.08,18.08,0,0,1,1096.26,1334.32Z" transform="translate(-149.8 -1037.88)"/><path class="cls-3" d="M1145.91,1334.32a19.13,19.13,0,0,1-10-2.47,16.14,16.14,0,0,1-6.35-7,24.53,24.53,0,0,1-2.21-10.81,26.19,26.19,0,0,1,1.26-8.42,17.49,17.49,0,0,1,3.64-6.32,15.91,15.91,0,0,1,5.85-4,20.09,20.09,0,0,1,7.78-1.43,22.1,22.1,0,0,1,6.6,1,15.69,15.69,0,0,1,5.43,2.88,2.76,2.76,0,0,1,1,1.26,2.07,2.07,0,0,1,.06,1.34,2.33,2.33,0,0,1-.67,1.07,1.68,1.68,0,0,1-1.15.42,2.83,2.83,0,0,1-1.51-.56,13.87,13.87,0,0,0-4.43-2.41,16.76,16.76,0,0,0-5.2-.78,14.15,14.15,0,0,0-7.5,1.87,11.7,11.7,0,0,0-4.65,5.46,21.67,21.67,0,0,0-1.56,8.67,21.91,21.91,0,0,0,1.56,8.71,11.66,11.66,0,0,0,4.65,5.48,14.06,14.06,0,0,0,7.5,1.88,16.51,16.51,0,0,0,5.2-.81,14.58,14.58,0,0,0,4.54-2.44,2.61,2.61,0,0,1,1.51-.53,1.77,1.77,0,0,1,1.12.42,2.23,2.23,0,0,1,.64,2.3,2.29,2.29,0,0,1-.86,1.17,16.12,16.12,0,0,1-5.52,3A21.57,21.57,0,0,1,1145.91,1334.32Z" transform="translate(-149.8 -1037.88)"/><path class="cls-3" d="M1176.19,1334.32a15.15,15.15,0,0,1-7.42-1.71,11.92,11.92,0,0,1-4.81-4.84,17.26,17.26,0,0,1,0-14.92,12.54,12.54,0,0,1,4.62-4.95,12.74,12.74,0,0,1,6.8-1.79,12.58,12.58,0,0,1,4.92.92,10.28,10.28,0,0,1,3.73,2.66,11.93,11.93,0,0,1,2.35,4.2,17.68,17.68,0,0,1,.81,5.54,1.59,1.59,0,0,1-.51,1.31,2.2,2.2,0,0,1-1.45.42h-19.48v-3h18.42l-.9.72a13,13,0,0,0-.9-5.12,7,7,0,0,0-2.6-3.22,7.7,7.7,0,0,0-4.28-1.12,8.54,8.54,0,0,0-4.84,1.32,8.17,8.17,0,0,0-3,3.64,13.51,13.51,0,0,0-1,5.4v.34q0,5.14,2.49,7.83a9.18,9.18,0,0,0,7.08,2.69,14.34,14.34,0,0,0,3.78-.51,12.5,12.5,0,0,0,3.66-1.67,2.46,2.46,0,0,1,1.43-.48,1.57,1.57,0,0,1,1,.39,1.85,1.85,0,0,1,.54.9,1.81,1.81,0,0,1-.12,1.15,2.27,2.27,0,0,1-1,1.06,14,14,0,0,1-4.37,2.07A18.08,18.08,0,0,1,1176.19,1334.32Z" transform="translate(-149.8 -1037.88)"/><path class="cls-3" d="M1202.89,1334.32a21.57,21.57,0,0,1-5.07-.62,14,14,0,0,1-4.73-2.13,2.13,2.13,0,0,1-.78-.92,1.87,1.87,0,0,1-.14-1.06,1.66,1.66,0,0,1,.45-.93,1.47,1.47,0,0,1,.89-.47,2,2,0,0,1,1.21.25,15.63,15.63,0,0,0,4.22,1.88,16.28,16.28,0,0,0,4.06.53,8.11,8.11,0,0,0,4.81-1.18,3.72,3.72,0,0,0,1.63-3.19,3.14,3.14,0,0,0-1.07-2.49,7.66,7.66,0,0,0-3.36-1.43l-5.09-1.12a9.7,9.7,0,0,1-5.23-2.52,6.43,6.43,0,0,1-1.71-4.64,7.19,7.19,0,0,1,1.32-4.34,8.52,8.52,0,0,1,3.72-2.83,14.43,14.43,0,0,1,5.6-1,16.62,16.62,0,0,1,4.67.64,11.84,11.84,0,0,1,4,2,2,2,0,0,1,.76.93,1.68,1.68,0,0,1,0,1.06,1.84,1.84,0,0,1-.53.9,1.62,1.62,0,0,1-1,.42,1.92,1.92,0,0,1-1.18-.34,12.73,12.73,0,0,0-3.41-1.65,11.46,11.46,0,0,0-3.41-.53,7.79,7.79,0,0,0-4.76,1.23,3.86,3.86,0,0,0-1.63,3.24,3.5,3.5,0,0,0,1,2.58,6.1,6.1,0,0,0,3.14,1.45l5.09,1.07a11.34,11.34,0,0,1,5.46,2.49,6,6,0,0,1,1.82,4.62,6.91,6.91,0,0,1-3,5.87A13,13,0,0,1,1202.89,1334.32Z" transform="translate(-149.8 -1037.88)"/><path class="cls-3" d="M1231.27,1334.32a11.35,11.35,0,0,1-5.35-1.15,7.23,7.23,0,0,1-3.22-3.36,12.35,12.35,0,0,1-1.06-5.4v-14.27h-3.75a2,2,0,0,1-1.46-.48,1.73,1.73,0,0,1-.5-1.31,1.66,1.66,0,0,1,.5-1.29,2.13,2.13,0,0,1,1.46-.45h3.75v-6.44a2.24,2.24,0,0,1,.61-1.7,2.3,2.3,0,0,1,1.68-.59,2.19,2.19,0,0,1,1.65.59,2.27,2.27,0,0,1,.59,1.7v6.44h7a2.13,2.13,0,0,1,1.46.45,1.62,1.62,0,0,1,.5,1.29,1.7,1.7,0,0,1-.5,1.31,2,2,0,0,1-1.46.48h-7V1324a7.49,7.49,0,0,0,1.35,4.84,5.27,5.27,0,0,0,4.36,1.66,6.4,6.4,0,0,0,1.82-.23,4.51,4.51,0,0,1,1.26-.22.9.9,0,0,1,.84.33,2.12,2.12,0,0,1,.33,1.35,3,3,0,0,1-.25,1.23,1.45,1.45,0,0,1-.86.78,13,13,0,0,1-1.77.42A11.44,11.44,0,0,1,1231.27,1334.32Z" transform="translate(-149.8 -1037.88)"/><path class="cls-3" d="M1248.5,1334.32a11.23,11.23,0,0,1-5-1.09,8.79,8.79,0,0,1-3.5-3,7.42,7.42,0,0,1-1.29-4.25,6.9,6.9,0,0,1,1.54-4.76,9,9,0,0,1,5.09-2.46,50.37,50.37,0,0,1,9.71-.73h2.52v3h-2.46a47.3,47.3,0,0,0-7.14.42,6.84,6.84,0,0,0-3.64,1.42,3.81,3.81,0,0,0-1,2.86,4.85,4.85,0,0,0,1.59,3.75,6.2,6.2,0,0,0,4.34,1.45,7.32,7.32,0,0,0,4-1.06,7.55,7.55,0,0,0,2.69-2.91,9,9,0,0,0,1-4.26v-6.38q0-3.46-1.39-5t-4.59-1.53a15.44,15.44,0,0,0-3.92.5,20.22,20.22,0,0,0-4.15,1.62,1.93,1.93,0,0,1-1.34.25,1.55,1.55,0,0,1-.89-.58,2,2,0,0,1-.14-2.19,2.14,2.14,0,0,1,1-.89,21.84,21.84,0,0,1,4.87-1.79,19.83,19.83,0,0,1,4.59-.56,13.06,13.06,0,0,1,5.82,1.14,7.4,7.4,0,0,1,3.41,3.47,13.74,13.74,0,0,1,1.12,6v15.16a2.6,2.6,0,0,1-.53,1.74,1.94,1.94,0,0,1-1.54.62,2.07,2.07,0,0,1-1.62-.62,2.46,2.46,0,0,1-.56-1.74v-4.36h.5a8.25,8.25,0,0,1-1.71,3.64,8.71,8.71,0,0,1-3.1,2.35A9.93,9.93,0,0,1,1248.5,1334.32Z" transform="translate(-149.8 -1037.88)"/><path class="cls-3" d="M1278.79,1334.32a21.57,21.57,0,0,1-5.07-.62,14,14,0,0,1-4.73-2.13,2.13,2.13,0,0,1-.78-.92,1.87,1.87,0,0,1-.14-1.06,1.72,1.72,0,0,1,.44-.93,1.52,1.52,0,0,1,.9-.47,2,2,0,0,1,1.2.25,15.82,15.82,0,0,0,4.23,1.88,16.23,16.23,0,0,0,4.06.53,8.11,8.11,0,0,0,4.81-1.18,3.74,3.74,0,0,0,1.62-3.19,3.14,3.14,0,0,0-1.06-2.49,7.66,7.66,0,0,0-3.36-1.43l-5.09-1.12a9.66,9.66,0,0,1-5.23-2.52,6.43,6.43,0,0,1-1.71-4.64,7.25,7.25,0,0,1,1.31-4.34,8.61,8.61,0,0,1,3.73-2.83,14.41,14.41,0,0,1,5.59-1,16.64,16.64,0,0,1,4.68.64,11.84,11.84,0,0,1,4,2,2,2,0,0,1,.76.93,1.75,1.75,0,0,1,0,1.06,1.84,1.84,0,0,1-.53.9,1.62,1.62,0,0,1-1,.42,1.9,1.9,0,0,1-1.18-.34,12.88,12.88,0,0,0-3.41-1.65,11.48,11.48,0,0,0-3.42-.53,7.76,7.76,0,0,0-4.75,1.23,3.86,3.86,0,0,0-1.63,3.24,3.5,3.5,0,0,0,1,2.58,6.1,6.1,0,0,0,3.13,1.45l5.1,1.07a11.38,11.38,0,0,1,5.46,2.49,6,6,0,0,1,1.81,4.62,6.9,6.9,0,0,1-3,5.87A13,13,0,0,1,1278.79,1334.32Z" transform="translate(-149.8 -1037.88)"/></svg>